<svg width="1028" height="640" viewBox="0 0 1028 640" fill="none" xmlns="http://www.w3.org/2000/svg">
<circle cx="320" cy="320" r="320" fill="#FBD5D5"/>
<circle cx="708" cy="320" r="320" fill="#C3DDFD"/>
<path fill-rule="evenodd" clip-rule="evenodd" d="M514 574.018C590.586 515.551 640 423.301 640 319.509C640 215.717 590.586 123.467 514 65C437.414 123.467 388 215.717 388 319.509C388 423.301 437.414 515.551 514 574.018Z" fill="#CABFFD"/>
<path d="M140.256 296.4L150.48 325.008C151.632 328.176 152.448 329.184 154.656 329.664V330H141.072V329.664C143.904 329.088 144.48 327.648 143.232 323.952L141.072 317.712H129.12L126.864 324.24C125.616 327.888 126.912 329.184 129.648 329.664V330H120.384V329.664C122.88 329.136 124.032 327.744 125.28 324.192L135.12 296.4H140.256ZM135.12 300.336L129.552 316.512H140.688L135.12 300.336ZM177.315 305.136V326.256C177.315 328.704 178.323 329.376 180.435 329.664V330H171.603V325.776C170.643 328.464 168.051 330.72 164.691 330.72C160.371 330.72 157.635 328.272 157.635 322.896V310.272C157.635 307.536 156.963 306.96 154.467 307.008V306.672L163.299 305.136V322.464C163.299 325.872 164.931 327.792 167.619 327.696C169.395 327.648 170.883 326.64 171.603 325.056V310.224C171.603 307.488 171.027 306.912 168.819 306.912V306.624L177.315 305.136ZM204.83 294.96V326.208C204.83 328.656 205.838 329.328 207.95 329.664V329.952H199.166V325.92C198.254 328.368 195.854 330.72 192.158 330.72C186.878 330.72 182.99 326.064 182.99 318.72C182.99 310.176 188.27 304.992 194.654 304.992C196.526 304.992 197.918 305.472 199.166 306.192V300.624C199.166 298.464 198.158 297.648 194.798 298.128V297.792L204.83 294.96ZM195.278 327.6C197.15 327.6 198.494 326.736 199.166 325.104V308.832C198.638 307.392 197.294 306.096 195.23 306.096C191.486 306.096 189.134 310.224 189.134 317.136C189.134 323.712 191.774 327.6 195.278 327.6ZM215.834 302.64C213.866 302.64 212.426 301.152 212.426 299.28C212.426 297.312 213.866 295.872 215.834 295.872C217.754 295.872 219.242 297.36 219.242 299.28C219.242 301.152 217.754 302.64 215.834 302.64ZM218.954 305.28V326.784C218.954 328.704 219.866 329.328 222.074 329.664V330H210.122V329.664C212.33 329.328 213.29 328.704 213.29 326.784V311.232C213.29 308.496 212.57 307.968 210.122 307.968V307.68L218.954 305.28ZM244.055 321.36L244.439 321.456C243.287 328.032 239.351 330.72 234.983 330.72C229.271 330.72 224.519 326.448 224.519 318.288C224.519 310.56 228.551 304.992 235.223 304.992C240.263 304.992 244.391 308.496 244.199 315.552H228.839C229.175 322.224 232.487 326.016 237.431 326.016C240.119 326.016 242.663 325.248 244.055 321.36ZM234.119 306.144C230.903 306.144 228.839 309.408 228.839 314.544H238.775C238.871 308.496 236.855 306.144 234.119 306.144ZM270.009 312.528V326.784C270.009 328.704 270.921 329.328 273.129 329.664V330H261.609V329.664C263.673 329.376 264.297 328.8 264.297 327.024V313.008C264.297 309.456 263.001 307.536 260.169 307.536C257.769 307.536 256.329 309.072 255.657 310.752V327.024C255.657 328.8 256.281 329.376 258.345 329.664V330H246.825V329.664C249.033 329.328 249.993 328.704 249.993 326.784V311.088C249.993 308.4 249.273 307.824 246.825 307.872V307.536L255.657 305.136V310.08C256.473 307.2 259.257 304.992 262.953 304.992C267.705 304.992 270.009 307.968 270.009 312.528ZM285.612 330.72C279.228 330.72 275.004 325.824 275.004 318.384C275.004 310.176 279.756 304.992 286.812 304.992C289.74 304.992 292.428 305.616 294.396 306.624L292.764 315.072H292.428C292.188 310.176 290.172 307.152 286.092 307.152C281.628 307.152 279.132 310.32 279.132 315.84C279.132 320.928 282.3 326.016 287.964 326.016C290.94 326.016 293.484 324.864 294.444 321.408L294.828 321.504C294.3 327.12 290.7 330.72 285.612 330.72ZM317.274 321.36L317.658 321.456C316.506 328.032 312.57 330.72 308.202 330.72C302.49 330.72 297.738 326.448 297.738 318.288C297.738 310.56 301.77 304.992 308.442 304.992C313.482 304.992 317.61 308.496 317.418 315.552H302.058C302.394 322.224 305.706 326.016 310.65 326.016C313.338 326.016 315.882 325.248 317.274 321.36ZM307.338 306.144C304.122 306.144 302.058 309.408 302.058 314.544H311.994C312.09 308.496 310.074 306.144 307.338 306.144Z" fill="#771D1D"/>
<path d="M725.856 312.624V312.816C732.768 312.768 737.376 315.744 737.376 321.216C737.376 326.832 732.816 330 724.464 330H709.44V329.664C712.032 329.28 712.896 328.416 712.896 325.008V301.056C712.896 298.128 712.08 297.168 709.44 296.736V296.4H724.128C731.712 296.4 735.744 299.04 735.744 304.368C735.744 309.168 731.856 312.24 725.856 312.624ZM721.968 297.408H719.232V312.384H721.92C726.96 312.384 729.072 309.792 729.072 304.704C729.072 299.856 726.624 297.408 721.968 297.408ZM719.232 328.992H723.072C727.632 328.992 730.416 326.208 730.416 321.264C730.416 315.888 727.728 313.344 722.688 313.344H719.232V328.992ZM756.172 304.992H756.556V310.656H756.316C755.884 310.416 755.116 310.272 754.108 310.272C750.94 310.272 748.876 312.144 748.876 318.624V326.784C748.876 328.8 749.836 329.424 752.956 329.664V330H740.044V329.664C742.252 329.328 743.212 328.704 743.212 326.784V311.376C743.212 308.544 742.492 307.824 740.044 307.872V307.536L748.636 305.136V315.12H748.828C749.26 308.112 751.996 304.992 756.172 304.992ZM782.276 325.296L782.708 325.344C781.94 328.752 779.78 330.72 776.708 330.72C774.02 330.72 772.484 329.088 772.292 326.544L772.196 325.968C771.62 328.272 769.172 330.72 765.38 330.72C761.156 330.72 758.9 328.032 758.9 324.864C758.9 320.64 762.164 318 767.588 316.896L772.148 315.984V314.832C772.148 310.656 770.612 308.208 766.532 308.208C763.268 308.208 760.916 309.936 760.004 313.728L759.668 313.632C760.34 308.304 763.844 304.992 769.172 304.992C775.076 304.992 777.812 308.688 777.812 314.64V325.152C777.812 326.88 778.532 327.84 779.684 327.84C780.692 327.84 781.748 327.168 782.276 325.296ZM768.212 327.888C770.084 327.888 771.38 327.12 772.148 325.2V316.944L769.412 317.52C764.9 318.384 764.324 321.024 764.324 323.184C764.324 325.68 765.572 327.888 768.212 327.888ZM807.29 312.528V326.784C807.29 328.704 808.202 329.328 810.41 329.664V330H798.89V329.664C800.954 329.376 801.578 328.8 801.578 327.024V313.008C801.578 309.456 800.282 307.536 797.45 307.536C795.05 307.536 793.61 309.072 792.938 310.752V327.024C792.938 328.8 793.562 329.376 795.626 329.664V330H784.106V329.664C786.314 329.328 787.274 328.704 787.274 326.784V311.088C787.274 308.4 786.554 307.824 784.106 307.872V307.536L792.938 305.136V310.08C793.754 307.2 796.538 304.992 800.234 304.992C804.986 304.992 807.29 307.968 807.29 312.528ZM834.783 294.96V326.208C834.783 328.656 835.791 329.328 837.903 329.664V329.952H829.119V325.92C828.207 328.368 825.807 330.72 822.111 330.72C816.831 330.72 812.943 326.064 812.943 318.72C812.943 310.176 818.223 304.992 824.607 304.992C826.479 304.992 827.871 305.472 829.119 306.192V300.624C829.119 298.464 828.111 297.648 824.751 298.128V297.792L834.783 294.96ZM825.231 327.6C827.103 327.6 828.447 326.736 829.119 325.104V308.832C828.591 307.392 827.247 306.096 825.183 306.096C821.439 306.096 819.087 310.224 819.087 317.136C819.087 323.712 821.727 327.6 825.231 327.6Z" fill="#233876"/>
<path d="M468.504 330.48H468.312L456.264 300.72L454.968 323.664C454.728 328.32 455.88 329.136 459.72 329.664V330H449.88V329.664C452.52 329.136 453.384 327.984 453.624 323.664L454.872 301.728C455.064 298.224 454.248 297.264 451.56 296.736V296.4H461.304L471 320.448L480.696 296.4H490.104V296.736C487.512 297.168 486.6 298.08 486.792 301.872L488.04 324.816C488.184 327.984 489.144 329.232 491.688 329.664V330H478.008V329.664C480.792 329.136 481.8 327.696 481.608 324L480.552 300.528L468.504 330.48ZM517.667 325.296L518.099 325.344C517.331 328.752 515.171 330.72 512.099 330.72C509.411 330.72 507.875 329.088 507.683 326.544L507.587 325.968C507.011 328.272 504.562 330.72 500.771 330.72C496.547 330.72 494.291 328.032 494.291 324.864C494.291 320.64 497.555 318 502.979 316.896L507.539 315.984V314.832C507.539 310.656 506.003 308.208 501.923 308.208C498.659 308.208 496.307 309.936 495.395 313.728L495.059 313.632C495.73 308.304 499.235 304.992 504.562 304.992C510.467 304.992 513.203 308.688 513.203 314.64V325.152C513.203 326.88 513.923 327.84 515.075 327.84C516.083 327.84 517.139 327.168 517.667 325.296ZM503.603 327.888C505.475 327.888 506.771 327.12 507.539 325.2V316.944L504.803 317.52C500.291 318.384 499.715 321.024 499.715 323.184C499.715 325.68 500.963 327.888 503.603 327.888ZM526.884 324.528L535.668 325.2C539.508 325.44 542.388 327.024 542.388 330.96C542.388 335.664 538.644 340.32 529.908 340.32C522.948 340.32 519.348 338.016 519.348 334.416C519.348 332.208 520.884 330.336 523.86 329.472C521.988 328.752 520.884 327.216 520.884 325.008C520.884 322.704 522.468 320.544 525.156 319.872C522.516 318.48 521.028 316.032 521.028 313.056C521.028 308.352 524.82 304.992 530.628 304.992C532.26 304.992 533.7 305.232 534.948 305.712H541.956V306.528H536.628C538.932 307.968 540.276 310.272 540.276 313.056C540.276 317.808 536.484 321.12 530.628 321.12C528.804 321.12 527.22 320.784 525.828 320.208C524.34 320.496 523.524 321.264 523.524 322.368C523.524 323.76 524.676 324.384 526.884 324.528ZM530.676 305.76C528.228 305.712 526.596 308.16 526.596 313.2C526.596 318.048 528.228 320.352 530.676 320.352C533.076 320.352 534.756 318.048 534.756 313.2C534.756 308.16 533.076 305.76 530.676 305.76ZM531.684 338.688C537.156 338.688 539.94 336.384 539.94 333.744C539.94 331.584 538.692 330.96 535.62 330.72L525.924 329.952C525.444 329.904 525.012 329.856 524.628 329.76C523.428 330.576 523.044 331.488 523.044 332.88C523.044 336.384 526.356 338.688 531.684 338.688ZM550.053 302.64C548.085 302.64 546.645 301.152 546.645 299.28C546.645 297.312 548.085 295.872 550.053 295.872C551.973 295.872 553.461 297.36 553.461 299.28C553.461 301.152 551.973 302.64 550.053 302.64ZM553.173 305.28V326.784C553.173 328.704 554.085 329.328 556.293 329.664V330H544.341V329.664C546.549 329.328 547.509 328.704 547.509 326.784V311.232C547.509 308.496 546.789 307.968 544.341 307.968V307.68L553.173 305.28ZM569.346 330.72C562.962 330.72 558.738 325.824 558.738 318.384C558.738 310.176 563.49 304.992 570.546 304.992C573.474 304.992 576.162 305.616 578.13 306.624L576.498 315.072H576.162C575.922 310.176 573.906 307.152 569.826 307.152C565.362 307.152 562.866 310.32 562.866 315.84C562.866 320.928 566.034 326.016 571.698 326.016C574.674 326.016 577.218 324.864 578.178 321.408L578.562 321.504C578.034 327.12 574.434 330.72 569.346 330.72Z" fill="#4A1D96"/>
<path d="M449 281C449.265 281 449.52 280.895 449.707 280.707C449.895 280.52 450 280.265 450 280C450 279.735 449.895 279.48 449.707 279.293C449.52 279.105 449.265 279 449 279C442.82 278.86 440 276 440 270C440 269.735 439.895 269.48 439.707 269.293C439.52 269.105 439.265 269 439 269C438.735 269 438.48 269.105 438.293 269.293C438.105 269.48 438 269.735 438 270C438 276.05 435.11 278.91 429 279C428.735 279 428.48 279.105 428.293 279.293C428.105 279.48 428 279.735 428 280C428 280.265 428.105 280.52 428.293 280.707C428.48 280.895 428.735 281 429 281C435.06 281 437.91 283.86 438 290C438 290.265 438.105 290.52 438.293 290.707C438.48 290.895 438.735 291 439 291C439.265 291 439.52 290.895 439.707 290.707C439.895 290.52 440 290.265 440 290C440.31 283.83 443.15 281 448.94 281H449Z" fill="#9061F9"/>
<path d="M491.364 357.636C491.532 357.636 491.694 357.569 491.814 357.45C491.933 357.331 492 357.169 492 357C492 356.831 491.933 356.669 491.814 356.55C491.694 356.431 491.532 356.364 491.364 356.364C487.431 356.275 485.636 354.455 485.636 350.636C485.636 350.468 485.569 350.306 485.45 350.186C485.331 350.067 485.169 350 485 350C484.831 350 484.669 350.067 484.55 350.186C484.431 350.306 484.364 350.468 484.364 350.636C484.364 354.486 482.525 356.306 478.636 356.364C478.468 356.364 478.306 356.431 478.186 356.55C478.067 356.669 478 356.831 478 357C478 357.169 478.067 357.331 478.186 357.45C478.306 357.569 478.468 357.636 478.636 357.636C482.493 357.636 484.306 359.456 484.364 363.364C484.364 363.532 484.431 363.694 484.55 363.814C484.669 363.933 484.831 364 485 364C485.169 364 485.331 363.933 485.45 363.814C485.569 363.694 485.636 363.532 485.636 363.364C485.834 359.437 487.641 357.636 491.325 357.636H491.364Z" fill="#9061F9"/>
<path d="M529.273 245.727C529.466 245.727 529.651 245.651 529.787 245.514C529.923 245.378 530 245.193 530 245C530 244.807 529.923 244.622 529.787 244.486C529.651 244.349 529.466 244.273 529.273 244.273C524.778 244.171 522.727 242.091 522.727 237.727C522.727 237.534 522.651 237.349 522.514 237.213C522.378 237.077 522.193 237 522 237C521.807 237 521.622 237.077 521.486 237.213C521.349 237.349 521.273 237.534 521.273 237.727C521.273 242.127 519.171 244.207 514.727 244.273C514.534 244.273 514.349 244.349 514.213 244.486C514.077 244.622 514 244.807 514 245C514 245.193 514.077 245.378 514.213 245.514C514.349 245.651 514.534 245.727 514.727 245.727C519.135 245.727 521.207 247.807 521.273 252.273C521.273 252.466 521.349 252.651 521.486 252.787C521.622 252.923 521.807 253 522 253C522.193 253 522.378 252.923 522.514 252.787C522.651 252.651 522.727 252.466 522.727 252.273C522.953 247.785 525.018 245.727 529.229 245.727H529.273Z" fill="#9061F9"/>
<path d="M606.5 348C606.898 348 607.279 347.842 607.561 347.561C607.842 347.279 608 346.898 608 346.5C608 346.102 607.842 345.721 607.561 345.439C607.279 345.158 606.898 345 606.5 345C597.23 344.79 593 340.5 593 331.5C593 331.102 592.842 330.721 592.561 330.439C592.279 330.158 591.898 330 591.5 330C591.102 330 590.721 330.158 590.439 330.439C590.158 330.721 590 331.102 590 331.5C590 340.575 585.665 344.865 576.5 345C576.102 345 575.721 345.158 575.439 345.439C575.158 345.721 575 346.102 575 346.5C575 346.898 575.158 347.279 575.439 347.561C575.721 347.842 576.102 348 576.5 348C585.59 348 589.865 352.29 590 361.5C590 361.898 590.158 362.279 590.439 362.561C590.721 362.842 591.102 363 591.5 363C591.898 363 592.279 362.842 592.561 362.561C592.842 362.279 593 361.898 593 361.5C593.465 352.245 597.725 348 606.41 348H606.5Z" fill="#9061F9"/>
</svg>
