<svg width="320" height="320" viewBox="0 0 320 320" fill="none" xmlns="http://www.w3.org/2000/svg">
<g clip-path="url(#clip0_2210_27)">
<path d="M182.86 160.02C182.86 172.64 172.63 182.88 160 182.88C147.37 182.88 137.14 172.65 137.14 160.02C137.14 147.39 147.37 137.16 160 137.16C172.63 137.16 182.86 147.39 182.86 160.02ZM160 114.31C134.75 114.31 114.29 134.78 114.29 160.02C114.29 185.26 134.76 205.73 160 205.73C185.24 205.73 205.71 185.26 205.71 160.02C205.71 134.78 185.24 114.31 160 114.31ZM228.57 160.02C228.57 197.89 197.87 228.59 160 228.59C122.13 228.59 91.43 197.89 91.43 160.02C91.43 122.15 122.13 91.45 160 91.45C197.87 91.45 228.57 122.15 228.57 160.02ZM160.43 68.41C109.94 68.41 69 109.34 69 159.84C69 210.34 109.93 251.27 160.43 251.27C210.93 251.27 251.86 210.34 251.86 159.84C251.86 109.34 210.93 68.41 160.43 68.41ZM274.71 159.84C274.71 222.96 223.54 274.13 160.42 274.13C97.3 274.13 46.13 222.96 46.13 159.84C46.13 96.72 97.3 45.55 160.42 45.55C223.54 45.55 274.71 96.72 274.71 159.84ZM160.43 22.69C84.69 22.69 23.29 84.09 23.29 159.83C23.29 235.57 84.69 296.97 160.43 296.97C236.17 296.97 297.57 235.57 297.57 159.83C297.57 84.09 236.17 22.69 160.43 22.69ZM320 159.84C320 248.21 248.37 319.84 160 319.84C71.63 319.84 0 248.2 0 159.84C0 71.48 71.63 -0.159973 160 -0.159973C248.37 -0.159973 320 71.47 320 159.84Z" fill="#3B82F6"/>
</g>
<defs>
<clipPath id="clip0_2210_27">
<rect width="320" height="320" fill="white"/>
</clipPath>
</defs>
</svg>
