<svg width="320" height="320" viewBox="0 0 320 320" fill="none" xmlns="http://www.w3.org/2000/svg">
<path d="M272.5 52.19C272.5 75.49 222.13 94.38 160 94.38C97.87 94.38 47.5 75.49 47.5 52.19C47.5 28.89 97.87 10 160 10C222.13 10 272.5 28.89 272.5 52.19ZM272.5 267.81C272.5 244.51 222.13 225.62 160 225.62C97.87 225.62 47.5 244.51 47.5 267.81C47.5 291.11 97.87 310 160 310C222.13 310 272.5 291.11 272.5 267.81ZM160 94.38C77.16 94.38 10 123.76 10 160C10 196.24 77.16 225.62 160 225.62C242.84 225.62 310 196.24 310 160C310 123.76 242.84 94.38 160 94.38ZM225.62 160C225.62 180.71 196.24 197.5 160 197.5C123.76 197.5 94.38 180.71 94.38 160C94.38 139.29 123.76 122.5 160 122.5C196.24 122.5 225.62 139.29 225.62 160Z" fill="#F97316"/>
</svg>
