<svg width="320" height="320" viewBox="0 0 320 320" fill="none" xmlns="http://www.w3.org/2000/svg">
<path d="M160 85C160 126.42 126.42 160 85 160C43.58 160 10 126.42 10 85C10 43.58 43.58 10 85 10C126.42 10 160 43.58 160 85ZM235 10C193.58 10 160 43.58 160 85C160 126.42 193.58 160 235 160C276.42 160 310 126.42 310 85C310 43.58 276.42 10 235 10ZM85 160C43.58 160 10 193.58 10 235C10 276.42 43.58 310 85 310C126.42 310 160 276.42 160 235C160 193.58 126.42 160 85 160ZM235 160C193.58 160 160 193.58 160 235C160 276.42 193.58 310 235 310C276.42 310 310 276.42 310 235C310 193.58 276.42 160 235 160Z" fill="#059669"/>
</svg>
