<svg width="320" height="320" viewBox="0 0 320 320" fill="none" xmlns="http://www.w3.org/2000/svg">
<path d="M300 37.5H33.12C30.7 37.5 28.75 35.54 28.75 33.13C28.75 30.71 26.79 28.75 24.37 28.75H20V20H300V37.5ZM300 46.25H20V55H50.62C53.04 55 55 56.96 55 59.38C55 61.8 56.96 63.75 59.37 63.75H300V46.25ZM300 72.5H20V81.25H76.87C79.29 81.25 81.25 83.21 81.25 85.63C81.25 88.05 83.21 90 85.62 90H300V72.5ZM300 98.75H20V107.5H103.12C105.54 107.5 107.5 109.46 107.5 111.88C107.5 114.3 109.46 116.25 111.87 116.25H300V98.75ZM300 125H20V133.75H129.37C131.79 133.75 133.75 135.71 133.75 138.13C133.75 140.55 135.71 142.5 138.12 142.5H300V125ZM300 151.25H20V160H155.62C158.04 160 160 161.96 160 164.38C160 166.8 161.96 168.75 164.37 168.75H300V151.25ZM300 177.5H20V186.25H181.87C184.29 186.25 186.25 188.21 186.25 190.63C186.25 193.05 188.21 195 190.62 195H300V177.5ZM300 203.75H20V212.5H208.12C210.54 212.5 212.5 214.46 212.5 216.88C212.5 219.3 214.46 221.25 216.87 221.25H300V203.75ZM300 230H20V238.75H234.37C236.79 238.75 238.75 240.71 238.75 243.13C238.75 245.55 240.71 247.5 243.12 247.5H300V230ZM300 256.25H20V265H260.62C263.04 265 265 266.96 265 269.38C265 271.8 266.96 273.75 269.37 273.75H300V256.25ZM300 282.5H20V291.25H286.87C289.29 291.25 291.25 293.21 291.25 295.63C291.25 298.05 293.21 300 295.62 300H300V282.5Z" fill="#EC4899"/>
</svg>
