<svg width="320" height="320" viewBox="0 0 320 320" fill="none" xmlns="http://www.w3.org/2000/svg">
<path d="M160 114.69V132.81C160 147.83 147.83 160 132.81 160H114.69C99.67 160 87.5 147.83 87.5 132.81V114.69C87.5 99.67 75.33 87.5 60.31 87.5H42.19C27.17 87.5 15 75.33 15 60.31V42.19C15 27.17 27.17 15 42.19 15H60.31C75.33 15 87.5 27.17 87.5 42.19V60.31C87.5 75.33 99.67 87.5 114.69 87.5H132.81C147.83 87.5 160 99.67 160 114.69ZM277.81 87.5H259.69C244.67 87.5 232.5 75.33 232.5 60.31V42.19C232.5 27.17 220.33 15 205.31 15H187.19C172.17 15 160 27.17 160 42.19V60.31C160 75.33 172.17 87.5 187.19 87.5H205.31C220.33 87.5 232.5 99.67 232.5 114.69V132.81C232.5 147.83 244.67 160 259.69 160H277.81C292.83 160 305 147.83 305 132.81V114.69C305 99.67 292.83 87.5 277.81 87.5ZM132.81 232.5H114.69C99.67 232.5 87.5 220.33 87.5 205.31V187.19C87.5 172.17 75.33 160 60.31 160H42.19C27.17 160 15 172.17 15 187.19V205.31C15 220.33 27.17 232.5 42.19 232.5H60.31C75.33 232.5 87.5 244.67 87.5 259.69V277.81C87.5 292.83 99.67 305 114.69 305H132.81C147.83 305 160 292.83 160 277.81V259.69C160 244.67 147.83 232.5 132.81 232.5ZM277.81 232.5H259.69C244.67 232.5 232.5 220.33 232.5 205.31V187.19C232.5 172.17 220.33 160 205.31 160H187.19C172.17 160 160 172.17 160 187.19V205.31C160 220.33 172.17 232.5 187.19 232.5H205.31C220.33 232.5 232.5 244.67 232.5 259.69V277.81C232.5 292.83 244.67 305 259.69 305H277.81C292.83 305 305 292.83 305 277.81V259.69C305 244.67 292.83 232.5 277.81 232.5Z" fill="#F59E0B"/>
</svg>
