<svg width="320" height="320" viewBox="0 0 320 320" fill="none" xmlns="http://www.w3.org/2000/svg">
<g clip-path="url(#clip0_2210_28)">
<path d="M224 160C224 195.35 195.35 224 160 224C124.65 224 96 195.35 96 160C96 124.65 124.65 96 160 96C195.35 96 224 124.65 224 160ZM96 96C60.65 96 32 124.65 32 160C32 195.35 60.65 224 96 224V96ZM32 104.58C12.88 115.65 0 136.32 0 160C0 183.68 12.88 204.35 32 215.42V104.59V104.58ZM215.42 32C204.35 12.88 183.68 0 160 0C136.32 0 115.65 12.88 104.58 32H215.41H215.42ZM224 224C259.35 224 288 195.35 288 160C288 124.65 259.35 96 224 96V224ZM224 96C224 60.65 195.35 32 160 32C124.65 32 96 60.65 96 96H224ZM288 215.42C307.12 204.35 320 183.69 320 160C320 136.31 307.12 115.65 288 104.58V215.41V215.42ZM96 224C96 259.35 124.65 288 160 288C195.35 288 224 259.35 224 224H96ZM104.58 288C115.65 307.12 136.31 320 160 320C183.69 320 204.35 307.12 215.42 288H104.59H104.58ZM32 96H96V32C60.65 32 32 60.65 32 96ZM224 32V96H288C288 60.65 259.35 32 224 32ZM288 224H224V288C259.35 288 288 259.35 288 224ZM96 288V224H32C32 259.35 60.65 288 96 288Z" fill="#CA8A04"/>
</g>
<defs>
<clipPath id="clip0_2210_28">
<rect width="320" height="320" fill="white"/>
</clipPath>
</defs>
</svg>
