<svg width="320" height="320" viewBox="0 0 320 320" fill="none" xmlns="http://www.w3.org/2000/svg">
<path d="M159.79 320C148.72 319.99 140.24 310.13 141.68 299.15L160 160L178.32 299.15C179.76 310.13 171.28 319.98 160.21 320C160.14 320 160.07 320 160 320C159.93 320 159.86 320 159.79 320ZM160 160L48.6501 74.56C39.8801 67.83 27.1001 70.21 21.5501 79.78C21.4801 79.9 21.4101 80.02 21.3401 80.14C15.8001 89.75 20.0901 102.05 30.3301 106.29L160 160ZM160 160L30.3301 213.71C20.0801 217.95 15.7901 230.26 21.3401 239.86C21.4101 239.98 21.4801 240.1 21.5501 240.22C27.1001 249.78 39.8801 252.17 48.6501 245.44L160 160ZM160 160L271.35 74.56C280.12 67.83 292.9 70.21 298.45 79.78C298.52 79.9 298.59 80.02 298.66 80.14C304.2 89.75 299.91 102.05 289.67 106.29L160 160ZM160 160L289.67 213.71C299.92 217.95 304.21 230.26 298.66 239.86C298.59 239.98 298.52 240.1 298.45 240.22C292.9 249.78 280.12 252.17 271.35 245.44L160 160L141.66 20.69C140.22 9.73 148.74 0 159.79 0H160H160.21C171.26 0 179.78 9.73 178.34 20.69L160 160ZM29.3901 160C29.3901 160.06 29.3901 160.12 29.3901 160.17C29.4001 169.21 37.4501 176.13 46.4101 174.95L160 160L46.4101 145.05C37.4501 143.87 29.4001 150.8 29.3901 159.83C29.3901 159.89 29.3901 159.95 29.3901 160ZM160 160L229.75 69.1C235.25 61.94 233.3 51.51 225.49 46.97C225.39 46.91 225.29 46.86 225.19 46.8C217.35 42.27 207.31 45.78 203.84 54.14L160 159.99M160 160L116.16 54.15C112.7 45.79 102.65 42.28 94.8101 46.81C94.7101 46.87 94.6101 46.92 94.5101 46.98C86.7001 51.51 84.7601 61.94 90.2501 69.11L160 160.01M160 160L229.75 250.9C235.25 258.06 233.3 268.49 225.49 273.03C225.39 273.09 225.29 273.14 225.19 273.2C217.35 277.73 207.31 274.22 203.84 265.86L160 160.01M160 160L116.16 265.85C112.7 274.21 102.65 277.72 94.8101 273.19C94.7101 273.13 94.6101 273.08 94.5101 273.02C86.7001 268.49 84.7601 258.06 90.2501 250.89L160 159.99L273.73 145.02C282.67 143.84 290.61 150.8 290.62 159.82V159.99V160.16C290.62 169.18 282.68 176.14 273.73 174.96L160 159.99" fill="#8B5CF6"/>
</svg>
